<mxfile host="app.diagrams.net" modified="2023-12-01T01:36:16.372Z" agent="Mozilla/5.0 (Windows NT 10.0; Win64; x64) AppleWebKit/537.36 (KHTML, like Gecko) Chrome/119.0.0.0 Safari/537.36" etag="URGGt7HUOsFK_gaIpSD_" version="22.1.5" type="github">
  <diagram name="Page-1" id="Sfxa-IFda7sbrmxiUlXe">
    <mxGraphModel dx="1050" dy="556" grid="1" gridSize="10" guides="1" tooltips="1" connect="1" arrows="1" fold="1" page="1" pageScale="1" pageWidth="827" pageHeight="1169" math="0" shadow="0">
      <root>
        <mxCell id="0" />
        <mxCell id="1" parent="0" />
        <mxCell id="qosRA-9tzpBEdH8LgJej-5" value="Produce Thread" style="text;html=1;strokeColor=none;fillColor=none;align=center;verticalAlign=middle;whiteSpace=wrap;rounded=0;" vertex="1" parent="1">
          <mxGeometry x="140" y="360" width="120" height="30" as="geometry" />
        </mxCell>
        <mxCell id="qosRA-9tzpBEdH8LgJej-6" value="" style="endArrow=none;html=1;rounded=0;" edge="1" parent="1">
          <mxGeometry width="50" height="50" relative="1" as="geometry">
            <mxPoint x="170" y="279" as="sourcePoint" />
            <mxPoint x="240" y="279" as="targetPoint" />
          </mxGeometry>
        </mxCell>
        <mxCell id="qosRA-9tzpBEdH8LgJej-7" value="" style="endArrow=none;html=1;rounded=0;" edge="1" parent="1">
          <mxGeometry width="50" height="50" relative="1" as="geometry">
            <mxPoint x="169" y="299" as="sourcePoint" />
            <mxPoint x="239" y="299" as="targetPoint" />
          </mxGeometry>
        </mxCell>
        <mxCell id="qosRA-9tzpBEdH8LgJej-8" value="" style="endArrow=none;html=1;rounded=0;" edge="1" parent="1">
          <mxGeometry width="50" height="50" relative="1" as="geometry">
            <mxPoint x="170" y="319" as="sourcePoint" />
            <mxPoint x="240" y="319" as="targetPoint" />
          </mxGeometry>
        </mxCell>
        <mxCell id="qosRA-9tzpBEdH8LgJej-9" value="" style="endArrow=none;html=1;rounded=0;" edge="1" parent="1">
          <mxGeometry width="50" height="50" relative="1" as="geometry">
            <mxPoint x="170" y="339" as="sourcePoint" />
            <mxPoint x="240" y="339" as="targetPoint" />
          </mxGeometry>
        </mxCell>
        <mxCell id="qosRA-9tzpBEdH8LgJej-10" value="" style="rounded=0;whiteSpace=wrap;html=1;" vertex="1" parent="1">
          <mxGeometry x="280" y="304" width="100" height="10" as="geometry" />
        </mxCell>
        <mxCell id="qosRA-9tzpBEdH8LgJej-11" value="input queue" style="text;whiteSpace=wrap;html=1;" vertex="1" parent="1">
          <mxGeometry x="295" y="324" width="70" height="20" as="geometry" />
        </mxCell>
        <mxCell id="qosRA-9tzpBEdH8LgJej-12" value="Process Thread" style="text;html=1;strokeColor=none;fillColor=none;align=center;verticalAlign=middle;whiteSpace=wrap;rounded=0;" vertex="1" parent="1">
          <mxGeometry x="387" y="361" width="120" height="30" as="geometry" />
        </mxCell>
        <mxCell id="qosRA-9tzpBEdH8LgJej-13" value="" style="endArrow=none;html=1;rounded=0;" edge="1" parent="1">
          <mxGeometry width="50" height="50" relative="1" as="geometry">
            <mxPoint x="417" y="280" as="sourcePoint" />
            <mxPoint x="487" y="280" as="targetPoint" />
          </mxGeometry>
        </mxCell>
        <mxCell id="qosRA-9tzpBEdH8LgJej-14" value="" style="endArrow=none;html=1;rounded=0;" edge="1" parent="1">
          <mxGeometry width="50" height="50" relative="1" as="geometry">
            <mxPoint x="416" y="300" as="sourcePoint" />
            <mxPoint x="486" y="300" as="targetPoint" />
          </mxGeometry>
        </mxCell>
        <mxCell id="qosRA-9tzpBEdH8LgJej-15" value="" style="endArrow=none;html=1;rounded=0;" edge="1" parent="1">
          <mxGeometry width="50" height="50" relative="1" as="geometry">
            <mxPoint x="417" y="320" as="sourcePoint" />
            <mxPoint x="487" y="320" as="targetPoint" />
          </mxGeometry>
        </mxCell>
        <mxCell id="qosRA-9tzpBEdH8LgJej-16" value="" style="endArrow=none;html=1;rounded=0;" edge="1" parent="1">
          <mxGeometry width="50" height="50" relative="1" as="geometry">
            <mxPoint x="417" y="340" as="sourcePoint" />
            <mxPoint x="487" y="340" as="targetPoint" />
          </mxGeometry>
        </mxCell>
        <mxCell id="qosRA-9tzpBEdH8LgJej-21" value="" style="rounded=0;whiteSpace=wrap;html=1;" vertex="1" parent="1">
          <mxGeometry x="540" y="304" width="100" height="10" as="geometry" />
        </mxCell>
        <mxCell id="qosRA-9tzpBEdH8LgJej-22" value="output queue" style="text;whiteSpace=wrap;html=1;" vertex="1" parent="1">
          <mxGeometry x="555" y="324" width="75" height="20" as="geometry" />
        </mxCell>
        <mxCell id="qosRA-9tzpBEdH8LgJej-23" value="" style="endArrow=none;html=1;rounded=0;" edge="1" parent="1">
          <mxGeometry width="50" height="50" relative="1" as="geometry">
            <mxPoint x="680" y="309" as="sourcePoint" />
            <mxPoint x="750" y="309" as="targetPoint" />
          </mxGeometry>
        </mxCell>
        <mxCell id="qosRA-9tzpBEdH8LgJej-24" value="Output Thread" style="text;html=1;strokeColor=none;fillColor=none;align=center;verticalAlign=middle;whiteSpace=wrap;rounded=0;" vertex="1" parent="1">
          <mxGeometry x="660" y="361" width="120" height="30" as="geometry" />
        </mxCell>
      </root>
    </mxGraphModel>
  </diagram>
</mxfile>
